@startuml

class CancelMeetingUI {
+ headline()
# doShow()
}

class CancelMeetingController {
+ meetig(SystemUser)
+ cancelMeeting(Meetings)
}

class ListMeetingsService {
+ overlap(Meeting, SystemUser)
+ myMeetings(SystemUser)
+ myMeetingsPending(SystemUser)
+myMeetingsAndOpened(SystemUser systemUser)
+myMeetingsCreatedAndOpened(SystemUser systemUser)
}

interface MeetingsRepository {
+ cancelled()
+ findByMyMeetingsCreatedAndOpened(SystemUser)
+ findByMyMeetingsAndOpened(SystemUser)
+ findByMyMeetingsPending(SystemUser)
+ findByMyMeetingsPendingHours(SystemUser, Calendar, LocalTime, LocalTime)
+ findByMyMeetings(SystemUser)
}

class Meetings {
- id
- date
- startTime
- endTime
- Set<Invite> invite
- cancelled
- SystemUser
+ sameAS(Meeting)
+ identity()
+ equals(Meeting)
+ hasIdentity(id)
+ cancelMeeting()
+ aceptRejectMeeting(InviteStatus, SystemUser)
+ listGuest()
}

CancelMeetingUI --> CancelMeetingController
CancelMeetingController --> ListMeetingsService
ListMeetingsService --> MeetingsRepository
CancelMeetingController --> Meetings
CancelMeetingController --> MeetingsRepository
@enduml